<svg width="90" height="90" viewBox="0 0 90 90" fill="none" xmlns="http://www.w3.org/2000/svg">
<g filter="url(#filter0_b_31_3099)">
<rect width="90" height="90" rx="12.5317" fill="url(#paint0_linear_31_3099)"/>
</g>
<path d="M44.9365 66.8042C44.8265 66.8042 44.689 66.8042 44.579 66.8042C44.0291 66.8042 43.5066 66.7492 42.9841 66.6942C38.172 66.1718 34.1023 63.5595 31.7925 59.5173C29.6476 55.7775 29.4277 51.4329 31.1325 47.5832L41.2243 24.9799C41.7742 23.7699 42.9841 23 44.4415 23H44.469C45.8989 23 47.1363 23.7424 47.7138 24.9524L58.3005 47.7481C60.1154 51.6529 59.8954 56.0525 57.668 59.8197C55.3032 63.8069 51.0135 66.3918 46.1739 66.7492C45.7614 66.8042 45.349 66.8042 44.9365 66.8042ZM44.469 24.3749C43.7541 24.3749 42.8741 24.6774 42.4892 25.5573L32.3974 48.1606C30.8575 51.5979 31.0775 55.5026 32.9749 58.8573C35.0647 62.487 38.7494 64.8519 43.1216 65.3468C43.6166 65.4018 44.1116 65.4293 44.6065 65.4568C45.1015 65.4568 45.5964 65.4568 46.0914 65.4293C50.5461 65.0993 54.3408 62.8445 56.4856 59.1873C58.4655 55.8326 58.6855 51.9003 57.0631 48.4081L46.4764 25.5573C46.0639 24.6774 45.184 24.3749 44.469 24.3749Z" fill="#FBECF5"/>
<path d="M43.809 59.3249C43.754 59.3249 43.6716 59.3249 43.6166 59.3249C43.3141 59.3249 43.0116 59.2974 42.7091 59.2699C42.3242 59.2149 42.0492 58.8849 42.1042 58.5C42.1592 58.115 42.4891 57.84 42.8741 57.895C43.1216 57.9225 43.3966 57.95 43.6716 57.95C43.9465 57.95 44.194 57.95 44.469 57.9225C46.8338 57.7575 48.8412 56.5476 49.9686 54.6227C51.0135 52.8629 51.1235 50.773 50.2711 48.9307C50.1061 48.5732 50.2711 48.1882 50.601 48.0232C50.931 47.8582 51.3435 48.0232 51.5085 48.3532C52.5534 50.608 52.4159 53.1378 51.151 55.3102C49.8036 57.5925 47.3288 59.1049 44.5515 59.2974C44.304 59.2974 44.0565 59.3249 43.809 59.3249Z" fill="#FBECF5"/>
<defs>
<filter id="filter0_b_31_3099" x="-19.4242" y="-19.4242" width="128.848" height="128.848" filterUnits="userSpaceOnUse" color-interpolation-filters="sRGB">
<feFlood flood-opacity="0" result="BackgroundImageFix"/>
<feGaussianBlur in="BackgroundImageFix" stdDeviation="9.71208"/>
<feComposite in2="SourceAlpha" operator="in" result="effect1_backgroundBlur_31_3099"/>
<feBlend mode="normal" in="SourceGraphic" in2="effect1_backgroundBlur_31_3099" result="shape"/>
</filter>
<linearGradient id="paint0_linear_31_3099" x1="45" y1="0" x2="45" y2="90" gradientUnits="userSpaceOnUse">
<stop stop-color="#030107"/>
<stop offset="1" stop-color="#0D7322"/>
</linearGradient>
</defs>
</svg>
