<svg width="90" height="90" viewBox="0 0 90 90" fill="none" xmlns="http://www.w3.org/2000/svg">
<g filter="url(#filter0_b_31_3079)">
<rect width="90" height="90" rx="12.5317" fill="url(#paint0_linear_31_3079)"/>
</g>
<path d="M45.4997 26.8126C45.0913 26.8126 44.7705 26.4626 44.7705 26.0834L44.7997 22.7292C44.7997 22.3208 45.1205 22 45.5289 22C45.9372 22 46.258 22.35 46.258 22.7292L46.2289 26.0834C46.2289 26.4626 45.8789 26.8126 45.4997 26.8126Z" fill="#FBECF5"/>
<path d="M34.6207 30.342C34.3874 30.342 34.154 30.2253 34.0373 30.0211L32.1123 27.2794C31.879 26.9586 31.9665 26.4919 32.2873 26.2585C32.6081 26.0252 33.0748 26.1127 33.3082 26.4335L35.2332 29.1753C35.4665 29.5253 35.379 29.9628 35.0582 30.1961C34.9124 30.3128 34.7665 30.342 34.6207 30.342Z" fill="#FBECF5"/>
<path d="M27.912 39.5878C27.8245 39.5878 27.7662 39.5878 27.6787 39.5586L24.4994 38.4794C24.1203 38.3627 23.9161 37.9252 24.0328 37.5461C24.1494 37.1669 24.5869 36.9627 24.9661 37.0794L28.1454 38.1586C28.5245 38.2753 28.7287 38.7128 28.612 39.0919C28.4954 39.4128 28.2329 39.5878 27.912 39.5878Z" fill="#FBECF5"/>
<path d="M24.7328 52.013C24.4119 52.013 24.1203 51.8088 24.0328 51.488C23.9161 51.1088 24.1203 50.7004 24.4994 50.5838L27.7078 49.5921C28.1162 49.4754 28.4954 49.6796 28.612 50.0588C28.7287 50.4379 28.5245 50.8463 28.1454 50.963L24.9369 51.9546C24.8786 52.013 24.7911 52.013 24.7328 52.013Z" fill="#FBECF5"/>
<path d="M32.6662 62.9511C32.5204 62.9511 32.3745 62.8928 32.2287 62.8053C31.9078 62.5719 31.8495 62.1052 32.0828 61.7844L34.0954 59.101C34.3287 58.7802 34.7954 58.7218 35.1163 58.9552C35.4371 59.1885 35.4954 59.6552 35.2621 59.976L33.2495 62.6594C33.1037 62.8636 32.8704 62.9511 32.6662 62.9511Z" fill="#FBECF5"/>
<path d="M45.4997 67.1512C45.4705 67.1512 45.4997 67.1512 45.4997 67.1512C45.0913 67.1512 44.7705 66.8012 44.7705 66.4221L44.7997 63.0678C44.7997 62.6595 45.1205 62.3386 45.5289 62.3386C45.9372 62.3386 46.258 62.6886 46.258 63.0678L46.2289 66.4221C46.1997 66.8304 45.8789 67.1512 45.4997 67.1512Z" fill="#FBECF5"/>
<path d="M58.3336 62.9802C58.1002 62.9802 57.8669 62.8635 57.7502 62.6593L55.8252 59.9176C55.5919 59.5967 55.6794 59.1301 56.0002 58.8967C56.321 58.6634 56.7877 58.7509 57.0211 59.0717L58.9461 61.8135C59.1794 62.1343 59.0919 62.601 58.7711 62.8343C58.6253 62.9218 58.4794 62.9802 58.3336 62.9802Z" fill="#FBECF5"/>
<path d="M66.2675 52.0717C66.18 52.0717 66.1216 52.0717 66.0341 52.0425L62.8549 50.9633C62.4757 50.8466 62.2716 50.4091 62.3882 50.03C62.5049 49.6508 62.9424 49.4466 63.3216 49.5633L66.5008 50.6425C66.88 50.7591 67.0842 51.1966 66.9675 51.5758C66.88 51.8675 66.5883 52.0717 66.2675 52.0717Z" fill="#FBECF5"/>
<path d="M63.0882 39.5589C62.7674 39.5589 62.4757 39.3547 62.3882 39.0339C62.2716 38.6547 62.4757 38.2463 62.8549 38.1297L66.0633 37.138C66.4717 37.0213 66.8508 37.2255 66.9675 37.6047C67.0842 37.9838 66.88 38.3922 66.5008 38.5089L63.2924 39.5005C63.2341 39.5589 63.1757 39.5589 63.0882 39.5589Z" fill="#FBECF5"/>
<path d="M56.3796 30.3129C56.2337 30.3129 56.0879 30.2546 55.9421 30.1671C55.6212 29.9337 55.5629 29.4671 55.7962 29.1462L57.8088 26.4628C58.0421 26.142 58.5088 26.0836 58.8296 26.317C59.1505 26.5503 59.2088 27.017 58.9755 27.3378L56.9629 30.0212C56.8171 30.2254 56.5837 30.3129 56.3796 30.3129Z" fill="#FBECF5"/>
<path d="M45.4997 58.7218C37.712 58.7218 31.3535 52.3633 31.3535 44.5756C31.3535 36.7879 37.712 30.4294 45.4997 30.4294C53.2874 30.4294 59.6459 36.7879 59.6459 44.5756C59.6459 52.3633 53.3166 58.7218 45.4997 58.7218ZM45.4997 31.8878C38.4995 31.8878 32.8119 37.5754 32.8119 44.5756C32.8119 51.5758 38.4995 57.2634 45.4997 57.2634C52.4999 57.2634 58.1875 51.5758 58.1875 44.5756C58.2167 37.5754 52.4999 31.8878 45.4997 31.8878Z" fill="#FBECF5"/>
<defs>
<filter id="filter0_b_31_3079" x="-19.4242" y="-19.4242" width="128.848" height="128.848" filterUnits="userSpaceOnUse" color-interpolation-filters="sRGB">
<feFlood flood-opacity="0" result="BackgroundImageFix"/>
<feGaussianBlur in="BackgroundImageFix" stdDeviation="9.71208"/>
<feComposite in2="SourceAlpha" operator="in" result="effect1_backgroundBlur_31_3079"/>
<feBlend mode="normal" in="SourceGraphic" in2="effect1_backgroundBlur_31_3079" result="shape"/>
</filter>
<linearGradient id="paint0_linear_31_3079" x1="45" y1="0" x2="45" y2="90" gradientUnits="userSpaceOnUse">
<stop stop-color="#030107"/>
<stop offset="1" stop-color="#0D7322"/>
</linearGradient>
</defs>
</svg>
