<svg width="90" height="90" viewBox="0 0 90 90" fill="none" xmlns="http://www.w3.org/2000/svg">
<g filter="url(#filter0_b_31_3104)">
<rect width="90" height="90" rx="12.5317" fill="url(#paint0_linear_31_3104)"/>
</g>
<path d="M25.4846 50.3815C25.0284 50.3815 24.6699 50.023 24.6699 49.5668V40.4421C24.6699 39.9859 25.0284 39.6274 25.4846 39.6274C25.9409 39.6274 26.2993 39.9859 26.2993 40.4421V49.5668C26.2993 49.9904 25.9409 50.3815 25.4846 50.3815Z" fill="#FBECF5"/>
<path d="M30.4382 50.3815C29.982 50.3815 29.6235 50.023 29.6235 49.5668V40.4421C29.6235 39.9859 29.982 39.6274 30.4382 39.6274C30.8945 39.6274 31.2529 39.9859 31.2529 40.4421V49.5668C31.2529 49.9904 30.8945 50.3815 30.4382 50.3815Z" fill="#FBECF5"/>
<path d="M35.3918 50.3815C34.9356 50.3815 34.5771 50.023 34.5771 49.5668V40.4421C34.5771 39.9859 34.9356 39.6274 35.3918 39.6274C35.8481 39.6274 36.2065 39.9859 36.2065 40.4421V49.5668C36.2065 49.9904 35.8481 50.3815 35.3918 50.3815Z" fill="#FBECF5"/>
<path d="M40.3455 50.3815C39.8892 50.3815 39.5308 50.023 39.5308 49.5668V40.4421C39.5308 39.9859 39.8892 39.6274 40.3455 39.6274C40.8017 39.6274 41.1602 39.9859 41.1602 40.4421V49.5668C41.1602 49.9904 40.8017 50.3815 40.3455 50.3815Z" fill="#FBECF5"/>
<path d="M64.4276 55.1068H20.6946C19.7495 55.1068 19 54.3247 19 53.4122V36.7272C19 35.7821 19.7821 35 20.6946 35H64.4276C65.3727 35 66.1222 35.7821 66.1222 36.7272V53.4122C66.1548 54.3247 65.3727 55.1068 64.4276 55.1068ZM20.6946 36.6294L20.6294 53.3796L64.4276 53.4448C64.4602 53.4448 64.4928 53.4122 64.4928 53.3796V36.6946L20.6946 36.6294Z" fill="#FBECF5"/>
<path d="M69.0551 50.8705H66.22C65.2749 50.8705 64.5254 50.0884 64.5254 49.1433V40.9311C64.5254 39.9861 65.3075 39.2366 66.22 39.2366H69.0551C70.0002 39.2366 70.7497 40.0187 70.7497 40.9311V49.1433C70.7497 50.121 70.0002 50.8705 69.0551 50.8705ZM66.22 40.866L66.1548 49.1759L69.0551 49.2737C69.0877 49.2737 69.1203 49.2411 69.1203 49.1759V40.9637L66.22 40.866Z" fill="#FBECF5"/>
<defs>
<filter id="filter0_b_31_3104" x="-19.4242" y="-19.4242" width="128.848" height="128.848" filterUnits="userSpaceOnUse" color-interpolation-filters="sRGB">
<feFlood flood-opacity="0" result="BackgroundImageFix"/>
<feGaussianBlur in="BackgroundImageFix" stdDeviation="9.71208"/>
<feComposite in2="SourceAlpha" operator="in" result="effect1_backgroundBlur_31_3104"/>
<feBlend mode="normal" in="SourceGraphic" in2="effect1_backgroundBlur_31_3104" result="shape"/>
</filter>
<linearGradient id="paint0_linear_31_3104" x1="45" y1="0" x2="45" y2="90" gradientUnits="userSpaceOnUse">
<stop stop-color="#030107"/>
<stop offset="1" stop-color="#0D7322"/>
</linearGradient>
</defs>
</svg>
