<svg width="90" height="90" viewBox="0 0 90 90" fill="none" xmlns="http://www.w3.org/2000/svg">
<g filter="url(#filter0_b_31_3094)">
<rect width="90" height="90" rx="12.5317" fill="url(#paint0_linear_31_3094)"/>
</g>
<path d="M39.9024 62.9987H25.6683C24.5141 62.9987 23.4488 62.4069 22.8865 61.4007C22.3243 60.3946 22.2947 59.1813 22.8865 58.1751L28.9531 47.6697L29.2786 51.2504C29.3082 51.6351 29.6337 51.931 30.0184 51.931C30.048 51.931 30.0776 51.931 30.0776 51.931C30.4919 51.9014 30.7878 51.5463 30.7582 51.132L30.2255 45.4206C30.2255 45.3614 30.2551 45.3318 30.2255 45.2727C30.196 45.1543 30.0776 45.1247 30.0184 45.0359C29.9888 44.9767 29.9592 44.9471 29.9 44.888C29.8408 44.8584 29.7817 44.8584 29.7225 44.8288C29.6337 44.7992 29.5449 44.74 29.4265 44.74C29.3674 44.74 29.3378 44.7992 29.3082 44.7992H29.2786C29.2194 44.7992 29.1602 44.8288 29.101 44.8584L23.9223 46.7227C23.5376 46.8707 23.3304 47.285 23.4784 47.6697C23.5968 47.9656 23.8631 48.1728 24.1886 48.1728C24.2774 48.1728 24.3662 48.1728 24.4254 48.1432L27.7102 46.9594L21.6436 57.4353C20.7855 58.9149 20.7855 60.6609 21.6436 62.1405C22.5018 63.6202 24.0111 64.4784 25.7274 64.4784H39.9616C40.3759 64.4784 40.7014 64.1528 40.7014 63.7385C40.7014 63.3242 40.3167 62.9987 39.9024 62.9987Z" fill="#FBECF5"/>
<path d="M68.3111 57.4354L61.1793 45.1249C60.9721 44.7697 60.5282 44.6514 60.1731 44.8585C59.818 45.0657 59.6997 45.5096 59.9068 45.8647L67.0387 58.1753C67.6305 59.1814 67.6305 60.3947 67.0387 61.4009C66.4468 62.407 65.4111 63.0285 64.2569 63.0285H52.0351L55.0536 60.8978C55.3791 60.6611 55.4679 60.1876 55.2311 59.8621C54.9944 59.5365 54.5209 59.4478 54.1954 59.6845L49.5197 62.9989C49.4901 63.0285 49.431 63.0285 49.4014 63.0581C49.3422 63.1469 49.3422 63.2356 49.3126 63.354C49.283 63.4132 49.2534 63.4724 49.2534 63.5316C49.2534 63.5907 49.283 63.6499 49.3126 63.7387C49.3422 63.8275 49.3126 63.9459 49.3718 64.0346C49.4014 64.0642 49.4606 64.0642 49.4902 64.0938C49.5789 64.2418 49.6677 64.3306 49.8453 64.3898L53.8995 67.8225C54.0474 67.9409 54.1954 68.0001 54.373 68.0001C54.5801 68.0001 54.7873 67.9113 54.9352 67.7337C55.2016 67.4082 55.172 66.9643 54.8464 66.698L52.2719 64.5081H64.3161C66.0325 64.5081 67.5418 63.6203 68.3999 62.1407C69.1398 60.6611 69.1397 58.8855 68.3111 57.4354Z" fill="#FBECF5"/>
<path d="M55.8824 36.6021L57.1253 31.2458C57.2141 30.8611 56.9773 30.4468 56.563 30.358C56.1487 30.2396 55.764 30.506 55.6752 30.9203L54.9058 34.3234L49.372 23.5517C48.6026 22.0424 47.1229 21.0955 45.4065 21.0067C43.6902 20.9179 42.1514 21.7169 41.2044 23.167L33.5103 35.0928C33.2735 35.448 33.3919 35.8918 33.7174 36.1286C34.0429 36.3653 34.5164 36.247 34.7532 35.9214L42.4769 23.966C43.0983 22.9894 44.1637 22.4271 45.3474 22.4863C46.5015 22.5455 47.5372 23.1966 48.0699 24.2323L53.6038 35.0337L50.4373 33.3765C50.0822 33.1693 49.6383 33.3173 49.4312 33.702C49.2536 34.0571 49.372 34.501 49.7567 34.7081L54.8466 37.3419C54.9058 37.3715 54.9058 37.4011 54.965 37.4307C55.0242 37.4307 55.0834 37.4603 55.1426 37.4603C55.2018 37.4603 55.2314 37.4307 55.2905 37.4011C55.4089 37.3715 55.4977 37.3715 55.5865 37.2827C55.6752 37.1643 55.764 37.1052 55.8232 36.9868C55.8528 36.9276 55.8232 36.898 55.8232 36.8388V36.8092C55.8824 36.7204 55.8824 36.6613 55.8824 36.6021Z" fill="#FBECF5"/>
<defs>
<filter id="filter0_b_31_3094" x="-19.4242" y="-19.4242" width="128.848" height="128.848" filterUnits="userSpaceOnUse" color-interpolation-filters="sRGB">
<feFlood flood-opacity="0" result="BackgroundImageFix"/>
<feGaussianBlur in="BackgroundImageFix" stdDeviation="9.71208"/>
<feComposite in2="SourceAlpha" operator="in" result="effect1_backgroundBlur_31_3094"/>
<feBlend mode="normal" in="SourceGraphic" in2="effect1_backgroundBlur_31_3094" result="shape"/>
</filter>
<linearGradient id="paint0_linear_31_3094" x1="45" y1="0" x2="45" y2="90" gradientUnits="userSpaceOnUse">
<stop stop-color="#030107"/>
<stop offset="1" stop-color="#0D7322"/>
</linearGradient>
</defs>
</svg>
