<svg width="90" height="90" viewBox="0 0 90 90" fill="none" xmlns="http://www.w3.org/2000/svg">
<g filter="url(#filter0_b_31_3074)">
<rect width="90" height="90" rx="12.5317" fill="url(#paint0_linear_31_3074)"/>
</g>
<path d="M48.1229 64.6583L42.6777 64.6293C42.2722 64.6293 41.9536 64.3107 41.9536 63.9052C41.9536 63.4998 42.2722 63.1812 42.6777 63.1812L48.1229 63.2101C48.5284 63.2101 48.847 63.5287 48.847 63.9342C48.847 64.3397 48.5284 64.6583 48.1229 64.6583Z" fill="#FBECF5"/>
<path d="M46.732 68.3656L44.0674 68.3366C43.6619 68.3366 43.3433 67.989 43.3433 67.6125C43.3433 67.207 43.6619 66.8884 44.0674 66.8884L46.732 66.9174C47.1375 66.9174 47.4561 67.265 47.4561 67.6415C47.4561 68.047 47.1375 68.3656 46.732 68.3656Z" fill="#FBECF5"/>
<path d="M48.1223 60.169H42.1268L41.0841 56.6934C39.4332 51.2482 36.6816 46.3244 33.9301 41.835C31.3233 37.5484 31.3523 32.277 34.0459 28.0194C37.8981 21.9949 45.979 20.1702 52.0613 24.0224C55.0736 25.934 57.1589 29.12 57.7961 32.7984C58.4333 36.5057 57.5644 40.2131 55.3632 43.0515C55.1315 43.3701 54.6681 43.428 54.3495 43.1674C54.0309 42.9356 53.9729 42.4722 54.2336 42.1536C56.1742 39.6628 56.9562 36.3319 56.3769 33.059C55.7976 29.7861 53.944 26.9477 51.2793 25.2388C45.8631 21.8211 38.7091 23.4141 35.2624 28.8014C32.8874 32.5667 32.8295 37.2588 35.1755 41.082C37.985 45.6582 40.7945 50.64 42.4744 56.2589L43.1985 58.6919H48.1223C48.5278 58.6919 48.8464 59.0105 48.8464 59.416C48.8464 59.8215 48.5278 60.169 48.1223 60.169Z" fill="#FBECF5"/>
<defs>
<filter id="filter0_b_31_3074" x="-19.4242" y="-19.4242" width="128.848" height="128.848" filterUnits="userSpaceOnUse" color-interpolation-filters="sRGB">
<feFlood flood-opacity="0" result="BackgroundImageFix"/>
<feGaussianBlur in="BackgroundImageFix" stdDeviation="9.71208"/>
<feComposite in2="SourceAlpha" operator="in" result="effect1_backgroundBlur_31_3074"/>
<feBlend mode="normal" in="SourceGraphic" in2="effect1_backgroundBlur_31_3074" result="shape"/>
</filter>
<linearGradient id="paint0_linear_31_3074" x1="45" y1="0" x2="45" y2="90" gradientUnits="userSpaceOnUse">
<stop stop-color="#030107"/>
<stop offset="1" stop-color="#0D7322"/>
</linearGradient>
</defs>
</svg>
