<svg width="90" height="90" viewBox="0 0 90 90" fill="none" xmlns="http://www.w3.org/2000/svg">
<g filter="url(#filter0_b_31_3084)">
<rect width="90" height="90" rx="12.5317" fill="url(#paint0_linear_31_3084)"/>
</g>
<path d="M45.485 26.8125C45.077 26.8125 44.7563 26.4625 44.7563 26.0833L44.7855 22.7292C44.7855 22.3208 45.1061 22 45.5142 22C45.9222 22 46.2429 22.35 46.2429 22.7292L46.2137 26.0833C46.2137 26.4625 45.8931 26.8125 45.485 26.8125Z" fill="#FBECF5"/>
<path d="M34.6135 30.3416C34.3804 30.3416 34.1472 30.225 34.0306 30.0208L32.1068 27.2791C31.8737 26.9583 31.9611 26.4916 32.2817 26.2583C32.6023 26.025 33.0687 26.1125 33.3019 26.4333L35.2256 29.175C35.4588 29.4958 35.3714 29.9625 35.0507 30.1958C34.905 30.3125 34.7593 30.3416 34.6135 30.3416Z" fill="#FBECF5"/>
<path d="M27.9094 39.5875C27.8219 39.5875 27.7636 39.5875 27.6762 39.5583L24.4991 38.4791C24.1202 38.3625 23.9161 37.925 24.0327 37.5458C24.1493 37.1666 24.5865 36.9625 24.9655 37.0791L28.1425 38.1583C28.5215 38.275 28.7255 38.7125 28.6089 39.0916C28.4923 39.4125 28.23 39.5875 27.9094 39.5875Z" fill="#FBECF5"/>
<path d="M24.7323 52.0124C24.4117 52.0124 24.1202 51.8083 24.0327 51.4874C23.9161 51.1083 24.1202 50.6999 24.4991 50.5833L27.7053 49.5916C28.0843 49.4749 28.4923 49.6791 28.6089 50.0583C28.7255 50.4374 28.5215 50.8458 28.1425 50.9624L24.9363 51.9541C24.878 52.0124 24.8197 52.0124 24.7323 52.0124Z" fill="#FBECF5"/>
<path d="M32.6603 62.95C32.5146 62.95 32.3689 62.8917 32.2231 62.8042C31.9025 62.5708 31.8442 62.1042 32.0774 61.7833L34.0886 59.1C34.3217 58.7792 34.7881 58.7208 35.1087 58.9542C35.4294 59.1875 35.4877 59.6542 35.2545 59.975L33.2433 62.6583C33.0975 62.8625 32.8644 62.95 32.6603 62.95Z" fill="#FBECF5"/>
<path d="M45.485 67.1501C45.077 67.1501 44.7563 66.8001 44.7563 66.421L44.7855 63.0668C44.7855 62.6585 45.1061 62.3376 45.5142 62.3376C45.9222 62.3376 46.2429 62.6876 46.2429 63.0668L46.2137 66.421C46.2137 66.8293 45.864 67.1501 45.485 67.1501Z" fill="#FBECF5"/>
<path d="M58.3108 62.9791C58.0776 62.9791 57.8444 62.8624 57.7279 62.6582L55.8041 59.9166C55.5709 59.5957 55.6584 59.1291 55.979 58.8957C56.2996 58.6624 56.766 58.7499 56.9992 59.0707L58.9229 61.8124C59.1561 62.1332 59.0686 62.5999 58.748 62.8332C58.6023 62.9207 58.4565 62.9791 58.3108 62.9791Z" fill="#FBECF5"/>
<path d="M66.2678 52.0709C66.1803 52.0709 66.122 52.0709 66.0346 52.0417L62.8575 50.9625C62.4786 50.8459 62.2745 50.4084 62.3911 50.0292C62.5077 49.65 62.9449 49.4459 63.3239 49.5625L66.5009 50.6417C66.8799 50.7584 67.0839 51.1959 66.9673 51.575C66.8507 51.8667 66.5592 52.0709 66.2678 52.0709Z" fill="#FBECF5"/>
<path d="M63.0614 39.5583C62.7408 39.5583 62.4493 39.3542 62.3618 39.0333C62.2452 38.6542 62.4493 38.2458 62.8282 38.1292L66.0344 37.1375C66.4134 37.0208 66.8214 37.225 66.938 37.6042C67.0546 37.9833 66.8506 38.3917 66.4717 38.5083L63.2654 39.5C63.2071 39.5583 63.1488 39.5583 63.0614 39.5583Z" fill="#FBECF5"/>
<path d="M56.3571 30.3123C56.2114 30.3123 56.0656 30.254 55.9199 30.1665C55.5993 29.9332 55.541 29.4665 55.7742 29.1457L57.7853 26.4623C58.0185 26.1415 58.4849 26.0832 58.8055 26.3165C59.1261 26.5498 59.1844 27.0165 58.9512 27.3373L56.9401 30.0207C56.7943 30.2248 56.5611 30.3123 56.3571 30.3123Z" fill="#FBECF5"/>
<path d="M45.515 58.7209C37.7326 58.7209 31.3784 52.3625 31.3784 44.575C31.3784 36.7875 37.7326 30.4292 45.515 30.4292C53.2974 30.4292 59.6516 36.7875 59.6516 44.575C59.6516 52.3625 53.2974 58.7209 45.515 58.7209ZM45.515 31.8875C38.5196 31.8875 32.8358 37.575 32.8358 44.575C32.8358 51.575 38.5196 57.2625 45.515 57.2625C52.5104 57.2625 58.1942 51.575 58.1942 44.575C58.1942 37.575 52.4813 31.8875 45.515 31.8875Z" fill="#FBECF5"/>
<path d="M45.5146 48.4541C43.2993 48.4541 41.4922 47.0249 41.4922 45.2458C41.4922 44.8374 41.8128 44.5166 42.2209 44.5166C42.6289 44.5166 42.9496 44.8374 42.9496 45.2458C42.9496 46.2083 44.1155 46.9958 45.5146 46.9958C46.9136 46.9958 48.0796 46.1791 48.0796 45.2458C48.0796 44.8374 48.4002 44.5166 48.8082 44.5166C49.2163 44.5166 49.5369 44.8374 49.5369 45.2458C49.5369 47.0249 47.7298 48.4541 45.5146 48.4541Z" fill="#FBECF5"/>
<path d="M41.9872 40.0543C41.5792 40.0543 41.2585 39.7334 41.2585 39.3251C41.2585 39.0043 40.9962 38.7418 40.6756 38.7418C40.355 38.7418 40.0926 39.0043 40.0926 39.3251C40.0926 39.7334 39.772 40.0543 39.3639 40.0543C38.9559 40.0543 38.6353 39.7334 38.6353 39.3251C38.6353 38.2168 39.5388 37.2834 40.6756 37.2834C41.8123 37.2834 42.7159 38.1876 42.7159 39.3251C42.7159 39.7334 42.3953 40.0543 41.9872 40.0543Z" fill="#FBECF5"/>
<path d="M51.6064 40.0543C51.1983 40.0543 50.8777 39.7334 50.8777 39.3251C50.8777 39.0043 50.6153 38.7418 50.2947 38.7418C49.9741 38.7418 49.7118 39.0043 49.7118 39.3251C49.7118 39.7334 49.3912 40.0543 48.9831 40.0543C48.575 40.0543 48.2544 39.7334 48.2544 39.3251C48.2544 38.2168 49.158 37.2834 50.2947 37.2834C51.4023 37.2834 52.3351 38.1876 52.3351 39.3251C52.3351 39.7334 52.0144 40.0543 51.6064 40.0543Z" fill="#FBECF5"/>
<defs>
<filter id="filter0_b_31_3084" x="-19.4242" y="-19.4242" width="128.848" height="128.848" filterUnits="userSpaceOnUse" color-interpolation-filters="sRGB">
<feFlood flood-opacity="0" result="BackgroundImageFix"/>
<feGaussianBlur in="BackgroundImageFix" stdDeviation="9.71208"/>
<feComposite in2="SourceAlpha" operator="in" result="effect1_backgroundBlur_31_3084"/>
<feBlend mode="normal" in="SourceGraphic" in2="effect1_backgroundBlur_31_3084" result="shape"/>
</filter>
<linearGradient id="paint0_linear_31_3084" x1="45" y1="0" x2="45" y2="90" gradientUnits="userSpaceOnUse">
<stop stop-color="#030107"/>
<stop offset="1" stop-color="#0D7322"/>
</linearGradient>
</defs>
</svg>
