<svg width="90" height="90" viewBox="0 0 90 90" fill="none" xmlns="http://www.w3.org/2000/svg">
<g filter="url(#filter0_b_31_3089)">
<rect width="90" height="90" rx="12.5317" fill="url(#paint0_linear_31_3089)"/>
</g>
<path d="M26.9408 64.7366C25.7182 64.7366 24.4955 64.5384 23.3059 64.1749C17.0274 62.1591 13.5576 55.4179 15.5734 49.1394C17.5891 42.8608 24.3303 39.3911 30.6088 41.4069C33.649 42.3982 36.1273 44.4801 37.5813 47.3219C37.7796 47.7185 37.6144 48.2141 37.2178 48.4455C36.8213 48.6437 36.3256 48.4785 36.0943 48.082C34.8386 45.6366 32.6907 43.8192 30.0801 42.993C24.6607 41.2416 18.8448 44.2487 17.1265 49.6351C15.4081 55.0544 18.3822 60.8704 23.7685 62.5887C29.1879 64.3401 35.0038 61.333 36.7222 55.9467C36.8543 55.5171 37.317 55.2858 37.7466 55.4179C38.1761 55.5501 38.4074 56.0127 38.2753 56.4423C36.7222 61.4982 31.9967 64.7366 26.9408 64.7366Z" fill="#FBECF5"/>
<path d="M61.8359 65.0008C55.7887 65.0008 50.5346 60.5066 49.7084 54.3933C49.2788 51.1549 50.138 47.9496 52.0877 45.372C52.352 45.0085 52.8807 44.9425 53.2442 45.2068C53.6077 45.4712 53.6738 45.9999 53.4095 46.3634C51.6911 48.6104 50.9641 51.3862 51.3607 54.162C52.1207 59.9449 57.474 64.0425 63.2569 63.2494C66.0657 62.8859 68.5441 61.4319 70.2624 59.1848C71.9807 56.9378 72.7077 54.162 72.3442 51.3532C71.5842 45.5703 66.2309 41.4727 60.448 42.2658C59.9854 42.2989 59.5889 42.0014 59.5228 41.5719C59.4567 41.1092 59.7871 40.7127 60.2167 40.6466C66.9249 39.7874 73.0712 44.4798 73.9635 51.1549C74.393 54.3933 73.5339 57.6317 71.5512 60.2092C69.5685 62.8198 66.6936 64.472 63.4551 64.9016C62.9264 64.9677 62.3646 65.0008 61.8359 65.0008Z" fill="#FBECF5"/>
<path d="M26.1149 54.625C25.8175 54.625 25.5532 54.4597 25.388 54.1954C25.1566 53.7988 25.3219 53.3032 25.7184 53.0718L57.3755 35.7893C57.772 35.558 58.2677 35.7232 58.499 36.1198C58.7303 36.5163 58.5651 37.012 58.1686 37.2433L26.5115 54.5258C26.3793 54.5919 26.2471 54.625 26.1149 54.625Z" fill="#FBECF5"/>
<path d="M57.1768 27.9575C57.1438 27.8914 57.0777 27.8584 57.0446 27.7923C57.0446 27.7262 57.1107 27.6932 57.1107 27.6271C57.1107 27.1644 56.7472 26.8009 56.2846 26.8009H52.0548L50.5348 25.2478C50.2043 24.9174 49.7087 24.9174 49.3782 25.2478C49.0478 25.5783 49.0478 26.074 49.3782 26.4044L51.394 28.4532H55.6237L61.5718 53.997C61.6709 54.3935 62.0014 54.6248 62.3649 54.6248C62.431 54.6248 62.4971 54.6248 62.5631 54.5918C62.9927 54.4926 63.2901 54.03 63.191 53.6004L57.1768 27.9575Z" fill="#FBECF5"/>
<path d="M44.8509 43.2243L36.1271 36.2848H36.6558C37.1184 36.2848 37.4819 35.9213 37.4819 35.4587C37.4819 34.9961 37.1184 34.6326 36.6558 34.6326H29.2207C28.758 34.6326 28.3945 34.9961 28.3945 35.4587C28.3945 35.9213 28.758 36.2848 29.2207 36.2848H33.5165L43.8596 44.5461C44.0248 44.6782 44.19 44.7113 44.3883 44.7113C44.6196 44.7113 44.884 44.6121 45.0492 44.4139C45.2805 44.0173 45.2144 43.4886 44.8509 43.2243Z" fill="#FBECF5"/>
<defs>
<filter id="filter0_b_31_3089" x="-19.4242" y="-19.4242" width="128.848" height="128.848" filterUnits="userSpaceOnUse" color-interpolation-filters="sRGB">
<feFlood flood-opacity="0" result="BackgroundImageFix"/>
<feGaussianBlur in="BackgroundImageFix" stdDeviation="9.71208"/>
<feComposite in2="SourceAlpha" operator="in" result="effect1_backgroundBlur_31_3089"/>
<feBlend mode="normal" in="SourceGraphic" in2="effect1_backgroundBlur_31_3089" result="shape"/>
</filter>
<linearGradient id="paint0_linear_31_3089" x1="45" y1="0" x2="45" y2="90" gradientUnits="userSpaceOnUse">
<stop stop-color="#030107"/>
<stop offset="1" stop-color="#0D7322"/>
</linearGradient>
</defs>
</svg>
